<svg xmlns="http://www.w3.org/2000/svg" viewBox="0 0 1362.33 1063.72"><defs><style>.cls-1{fill:#fff;}</style></defs><title>Logo_Game25_Mono</title><g id="Calque_1" data-name="Calque 1"><path class="cls-1" d="M581.34,869.32c.82,3-.13,4.76-2.84,5.33-1.72.37-6.93.17-15.68-.44s-14.22-1-16.34-1.46c-16.65,13.72-33,23.1-49.86,28.21-27.08,8.23-52.55,4.84-78.75-10.43-25.82-15-46.58-38.12-61.11-70.67-14.83-33.23-18.36-64.68-8-94.5,10.6-30.72,34-52.51,68.91-63.22A115.85,115.85,0,0,1,468.6,658c18.31,2.79,33.74,9.76,46.14,20.58q3.81,3.36,4.23,5c.91,3.57-2,12.64-8.3,27.28s-10.47,22.34-13.18,23c-.63.16-3.65-1.5-9.13-4.93a67.54,67.54,0,0,0-19.47-8.28,53.75,53.75,0,0,0-28.67,1c-15.79,4.8-26.07,15-30.54,30.1-4.24,13.94-3,29.17,3.31,45.7,6.64,17.5,15.9,29.91,27.53,37.47,12.05,7.79,25.31,9.32,40.36,4.8,9.54-2.86,19.36-8.72,29.79-17.54-1.31-3.57-4.75-12.62-10.48-27.11-4.56-11.12-7.91-20.2-10-27.25-.61-2.09-.33-3.53.86-4.33a6.81,6.81,0,0,1,2.33-1A129.33,129.33,0,0,1,507,760.05c6.1-.9,10.67-1.69,13.72-2.42,3.25-.78,8.07-2.19,14.48-4.17s11.28-3.29,14.56-4q3.84-.81,5.09,4.73,1.83,8.06,4.64,24.51t4.61,24.5c3.2,14.44,8.91,35.84,16.76,64.29C581,868.1,581.16,868.71,581.34,869.32Z" transform="translate(-101.84 -137.51)"/><path class="cls-1" d="M783.47,849.67c0,2.06-1.16,3.49-3.46,4.3-2.77.95-11.37,1.41-25.78,1.85-13.21.42-21.72.46-25.56-.25q-4.78-.93-6.46-7.36c-4.23-16.26-7.41-24.89-9.31-25.9-1.58-.65-14.45-.34-38.48,2.2-16.21,1.76-24.72,3.49-25.63,4.63-1.36,2-2.31,8.35-2.8,18.94q-.63,14.49-4.14,16.2c-3,1.38-13.33,3.27-31,6.37-13.89,2.48-21.13,2.3-21.8-1-.37-2.92,1.6-40.83,12-113.84,11.73-79,21.94-122.3,23-130.09.74-4.49,2.06-6.86,3.91-7.09,3.14-.39,8-.71,14.66-.89s11.57-.41,14.83-.74,7.73-1,13.81-1.94,10.62-1.53,13.66-1.77c2.21-.18,4.42,1.54,6.6,5.17,6.52,11.59,27.25,51.36,54.65,120.87C773.26,809.42,783.18,846.63,783.47,849.67ZM668.15,699c-1.71,5.24-4.32,16.5-7.53,33.8-3.49,18.37-4.85,29.1-4.48,32.17.26,2,3.43,2.81,9.51,2.37,3.15-.11,8.31-.55,15.48-1.24,6.66-.63,10.27-1.84,10.82-3.73A7.33,7.33,0,0,0,692,760c-.35-3.77-3.59-14-10.07-30.51C675.62,713.49,670.91,703.37,668.15,699Z" transform="translate(-101.84 -137.51)"/><path class="cls-1" d="M1003.88,872.51q-1.18,5.19-5.1,4.33-23.94-5.21-48.15-9.24c-2.65-.44-3.64-2.63-3-6.59,1.91-11.41,5.11-28.47,9.77-51.17s8.08-39.72,10.1-51.12c.59-3.27.44-5.1-.44-5.47-1.18.51-11.41,16.74-28.69,49.31q-15.14,28.73-28.89,57.68c-1.25,2.49-2.58,3.89-4,4.18a46,46,0,0,1-5.52-.48c-4.75-.54-7.47-2-8.14-4.36-3.61-13.05-8.31-32-14.69-56.65-6.85-26.12-12.67-45-16.68-56.6a5.26,5.26,0,0,0-1.25-2,8.88,8.88,0,0,0-1.43,4.9Q856.6,766.07,855,799.7t-2.74,50.44c-.27,4-1.7,5.92-4.29,5.76q-23.13-1.44-46.32-1.81c-1.86,0-3-.42-3.39-1.17a8.52,8.52,0,0,1-.58-3.87c.16-12.48.87-31.23,2.26-56.25s2.26-43.75,2.46-56.24c.21-13.28.12-38.2-.43-74.75q.06-14.26-.9-42.45c0-1-.08-2-.13-2.93-.08-2.28,2.38-3.41,7.4-3.32,6.41.12,16,.13,28.89.25s22.47.51,28.88.92c1.28.08,2.91,2.6,4.86,7.55q21,56.64,37.3,113.87c2.34,7.75,4.55,11.75,6.71,12,1.13.13,4.07-3.85,8.94-11.92,13.74-22.54,34.63-56.43,66.18-100.38,2.77-4.07,5.32-5.91,7.62-5.51,3.33.57,8.32,1.61,14.94,3.17s11.64,2.72,15.06,3.39c2.85.56,7.27,1.15,13.27,1.81s10.42,1.33,13.26,2c3.41.75,4.77,2.47,4.09,5.14-3.33,13.13-8.78,32.63-16.11,58.56s-12.43,45.5-15.56,58.66q-4.32,18.24-11.52,55T1003.88,872.51Z" transform="translate(-101.84 -137.51)"/><path class="cls-1" d="M783.06,672h3.58c0-.27,0-.54,0-.81q-27.68-5-56.42-9.46,2.34,5.12,4.84,10.74,20.09-.46,40.16-.48Z" transform="translate(-101.84 -137.51)"/><path class="cls-1" d="M902,663.23c1,3,2,6,3,8.95,6.39,1.63,12.74,3.28,19,5q8.82.69,17.63,1.47c.85-1.31,1.72-2.63,2.61-4Q923.57,668.72,902,663.23Z" transform="translate(-101.84 -137.51)"/><path class="cls-1" d="M712.93,625.69q2.07,4,4.59,9.17,35.19,5.28,68.83,11.46c-.05-2.65-.12-5.45-.19-8.4Q750.43,631.29,712.93,625.69Z" transform="translate(-101.84 -137.51)"/><path class="cls-1" d="M889.27,626.69c1.07,2.93,2.12,5.87,3.17,8.81q34,8.52,66,18.08c1.47-2.15,3-4.33,4.51-6.54Q927.42,636.21,889.27,626.69Z" transform="translate(-101.84 -137.51)"/><path class="cls-1" d="M569,684.38,522.19,318.93,549,288.38l27.6,246.06,15.94,147.27,5.12-.53c3.74-20.67,6.85-36,8.84-45.82,1.11-5.51,2.08-10.26,2.29-11.77l0-.2,0-.19c2.63-15.77,12-19.25,17.27-19.92.63-.08,1.33-.15,2-.22L591.69,189.49l44.22-47.1L667.59,600l1.29-.2c6.23-1,11.22-1.62,14.84-1.91.51,0,1-.06,1.55-.06a19.38,19.38,0,0,1,3,.24l-.1-1.72,1.56.22q49.53,7,96.16,15.76a17.69,17.69,0,0,1,3.71-7.48q-48.81-9.33-100.87-16.75l-1-.14-1.57-26.86,1.57.22C795,576.8,892.35,598.45,978,625.76a32.27,32.27,0,0,1,6.87-7.19c-87.59-28.64-187.7-51.26-298.24-67.35l-1-.15-1.62-27.79,1.57.24c127.31,18.81,241,46.25,337.86,81.56l.95.35-1.59,14.07c3,.7,5.91,1.34,8,1.75,1.88.37,5,.81,9.4,1.31l43.38-353.16.12-.93-.86-.4c-.51-.24-49.38-22.72-123.83-49.26l.58-8.68c-60.23-84.56-195.85-58.6-195.85-58.6l.16,9.47c-40.48-9.45-83.14-17.7-126.22-23.41l-.66-.08-81.44,86.75-.4.43,5.78,59.66-11.83,0-29.58,33.78,47,366.58Zm456.16-86.61-1.54-.57c-97.21-35.65-211.32-63.36-339.17-82.37l-1-.16L681.75,486l1.58.24c129.64,19.56,245.35,48.06,343.9,84.69l1,.35Zm4-35.74-1.55-.58c-99-37-215.21-65.86-345.49-85.66l-1-.16-1.74-29.74,1.58.25c132.15,20.39,250,50,350.38,88.12l.94.35ZM1033.4,525l-1.56-.59c-100.78-38.51-219.23-68.5-352-89.15l-1-.16L677,404.24l1.58.25c134.75,21.27,254.91,52.14,357.12,91.74l.93.36Zm4.34-38.48-1.56-.61C933.51,445.8,812.77,414.57,677.33,393l-1-.16-1.87-32,1.59.26c137.46,22.2,260,54.37,364.11,95.59l.92.36Zm4.36-38.64-1.57-.62C936,405.56,812.93,373.05,674.84,350.58l-1-.16-1.94-33.14,1.59.26c140.18,23.17,265.06,56.66,371.15,99.55l.91.36Zm4.68-41.5-1.58-.64c-106.59-43.4-232.1-77.3-373-100.78l-1-.17-2-34.43,1.6.28c143.11,24.22,270.53,59.17,378.71,103.88l.9.37Zm5-45.09-1.59-.66c-108.74-45.3-236.88-80.72-380.84-105.29l-1-.18-2.09-35.82,1.6.28c146.23,25.37,276.35,61.9,386.74,108.58l.89.38Zm-387-192.48c149.47,26.59,282.39,64.81,395.07,113.58l.88.38-3.84,34-1.59-.68c-111-47.3-241.83-84.33-388.94-110.06l-1-.18-2.18-37.32Z" transform="translate(-101.84 -137.51)"/><path class="cls-1" d="M968.31,207.64l-.33,4.92c128.15,7.08,226.28,22.21,226.28,45.37V666.2q6.83,2.17,15,4.85,4.82,1.58,9.07,3V237.37c0-26-117.67-42.34-266.1-49.13a134.9,134.9,0,0,1,14.26,16.9Z" transform="translate(-101.84 -137.51)"/><path class="cls-1" d="M379.78,662.46V257.93c0-19.73,71.18-33.62,171.45-41.69l23.93-25.49c-125.71,7.9-219.49,23.44-219.49,46.62V683A112.05,112.05,0,0,1,379.78,662.46Z" transform="translate(-101.84 -137.51)"/><path class="cls-1" d="M1159.21,1060a131.81,131.81,0,0,1-97.44,43h-204c-25.47,0-69.5,31.46-69.5,69.87,0-38.41-44-69.87-69.5-69.87H512.28a131.86,131.86,0,0,1-99.73-45.52A139.45,139.45,0,0,1,382,1069.06,140.15,140.15,0,0,0,496,1127.61H714.7c27,0,73.61,33.15,73.61,73.62,0-40.47,46.64-73.62,73.62-73.62H1078a140.12,140.12,0,0,0,112.92-57,156.46,156.46,0,0,1-27.27-8.6C1162.17,1061.37,1160.68,1060.69,1159.21,1060Z" transform="translate(-101.84 -137.51)"/><path class="cls-1" d="M1182.59,878.1c-1.93,4.54-6.23,12.57-12.77,24.15-7.07,12.6-11.63,20-13.86,22q-2.74,2.41-5.43,1.35a27.07,27.07,0,0,1-3.65-2c-5.82-3.44-23.78-11.26-54.67-21.29-6.75-2.17-16.77-5.41-30.19-9.39s-23.59-6.67-30.38-8.39c-3-.75-4-2.72-3.2-5.94,3.17-12.44,8.49-31,16.23-55.58s13.46-43,16.84-55.44q5.17-18.93,17.66-71,3.24-13.38,9.38-40.07c.17-.78.33-1.57.5-2.36.49-2.59,2.26-3.52,5.3-2.74,8.32,2.12,20.74,5.59,37.12,10.78s28.55,9.3,36.69,11.92,20.18,6.33,36.32,11.61,28.07,9.65,35.91,12.72c5.58,2.19,7.85,5.54,6.84,10q-.84,3.93-7.5,22.93t-8.4,22.94q-1.49,3.3-4.52,2.08c-.61-.25-1.65-.73-3.13-1.44a512.58,512.58,0,0,0-72.57-30.18c-5.56-1.79-9.45-1.5-11.64.82q-1.47,1.71-5.1,12.31-3.8,11.09-1.95,15.63c1,2.61,4,4.67,8.82,6.25q1.52.5,6,1.69t7.36,2.19q19.05,6.43,38.74,12.6c1.14.31,4,1.08,8.53,2.34a68.18,68.18,0,0,1,8.29,2.52c2.37.94,3,2.63,2,5.05,1-2.21-3.47,5.48-13.05,23.18q-6.55,12.23-11.87,24.94c-.88,2.12-2.68,2.64-5.39,1.58q-6-3.27-12-6.46c-5.12-2.64-17.25-7.6-36.69-14.12q-7.6-2.55-15.26-5c-3.95-1.25-6.64-.88-8,1.09q-.42.76-3.49,10.09-4.07,12.42-3.83,16.46c.24,4.65,5.4,8.93,15.38,13.08-.19,0,6.58,2.12,20.14,6.91,4.86,1.73,12.25,3.8,22.15,6.39a191.81,191.81,0,0,1,21.87,6.84Q1185,872.39,1182.59,878.1Z" transform="translate(-101.84 -137.51)"/></g><g id="Layer_2" data-name="Layer 2"><path class="cls-1" d="M908.11,683.38q5.25,16.39,10.16,32.93c5.21-8.46,11.63-18.73,19.31-30.57Q922.85,684.44,908.11,683.38Z" transform="translate(-101.84 -137.51)"/><path class="cls-1" d="M1056.69,708c-3.52,12.47-6.38,22.92-8.69,31.61l5,.79c2.54-10.18,5.68-23,9.53-39l-3.86-.64C1058.06,703.12,1057.39,705.51,1056.69,708Z" transform="translate(-101.84 -137.51)"/><path class="cls-1" d="M754.33,719.25q9.4-.18,18.81-.25,7.18,0,14.38,0c0-10.84-.1-24.37-.29-40q-7.18,0-14.37,0-17.6.12-35.19.61C742.78,691.29,748.35,704.47,754.33,719.25Z" transform="translate(-101.84 -137.51)"/><path class="cls-1" d="M1245,760.47c-3.17,7.06-9.4,11.28-16.67,11.28a19.09,19.09,0,0,1-7.14-1.42l-.32-.13a17.86,17.86,0,0,1,5.3,6.92,5.27,5.27,0,0,1,.19.51q6.63,1.79,13.26,3.63l6.65-23.86C1245.7,758.89,1245.31,759.81,1245,760.47Z" transform="translate(-101.84 -137.51)"/><path class="cls-1" d="M329.62,739.83c-2.32.63-4.64,1.25-6.95,1.89l5.22,18.87A124.28,124.28,0,0,1,329.62,739.83Z" transform="translate(-101.84 -137.51)"/><path class="cls-1" d="M531.86,697.53a203,203,0,0,1-7.4,19.31c-4.86,11.4-8.62,19.2-12.65,24.29q12.78-2.08,25.58-4c3.61-1,6.69-1.81,9.2-2.34a19.46,19.46,0,0,1,4.06-.43,19.05,19.05,0,0,1,3.64.37q17.73-2.43,35.51-4.5,3.63-22.9,6.87-41Q564.19,692.78,531.86,697.53Z" transform="translate(-101.84 -137.51)"/></g><g id="Layer_3" data-name="Layer 3"><path class="cls-1" d="M782.39,919.63q9.93,17.68,7,33a63.58,63.58,0,0,1-13.81,28.7,140.29,140.29,0,0,1-26.87,24.82q-16,11.5-32.21,21.67l65.62-7.51-1.45,61.27-143.59,7.26-.25-37.05q-1.7-6,1.7-13.31a71.13,71.13,0,0,1,9.93-15.14,173.15,173.15,0,0,1,15.25-16q8.71-8.11,17.92-16.1t17.8-15.38q8.6-7.38,14.89-13.56a63.17,63.17,0,0,0,9.32-11q3-4.85,1.09-7.51-2.89-3.87-11.14-1.69a84.44,84.44,0,0,0-18.28,7.63A203.76,203.76,0,0,0,675,962.49a190.91,190.91,0,0,0-17.31,13.56l-32.45-46.73q22.51-21.32,42.13-32.09t35.48-13.68q15.85-2.91,28.81-.24a67.6,67.6,0,0,1,22.28,8.47A93,93,0,0,1,769.8,904a69.48,69.48,0,0,1,9.45,10.9Q782.15,919.4,782.39,919.63Z" transform="translate(-101.84 -137.51)"/><path class="cls-1" d="M789.31,908.38c1.21,1.86,1.88,2.88,2.25,3.42l.45.45.85,1.5A72.58,72.58,0,0,1,801,935.1h.48l2.49,0h.49l2.68-33.95c-7.47-.12-15-.19-22.6-.19h-1A60.17,60.17,0,0,1,789.31,908.38Z" transform="translate(-101.84 -137.51)"/><path class="cls-1" d="M1358.38,971.86,1422,870.17l-157.78-51.49-4.79-73.41-7.47-2c-4.24,12-5.72,15.64-6.52,17.43-3.25,7.25-9.66,11.57-17.13,11.58-.55,0-1.09,0-1.64-.09l.4,6.08a18.89,18.89,0,0,1,.63,9.68l3.67,56.27,138.07,45L1317.68,972l68.7,108.29-166.34-48-12.33-3.56-1.12-.32-1.17-.17a101.5,101.5,0,0,1-29.68-9.62c-8.22-4.32-14.67-9.85-15.31-16.23-.54-5.42-1-11.5-1.54-17.93-.63-7.79-1.27-15.85-2.1-23.77l-1.25-12-11.72-2.91c-32.33-8.05-64.77-14.87-96.91-20.57-30.27-5.66-63.74-10.85-100-15l.86,34.32a1320.41,1320.41,0,0,1,176,32.45c.29,3.42.57,6.85.84,10.22.53,6.6,1,12.84,1.61,18.6,1.24,12.47,8,29.31,31.8,42.39a105.57,105.57,0,0,0,9.63,4.67,148.9,148.9,0,0,0,31.55,9.22l6.55,1.9,258.46,74.66Z" transform="translate(-101.84 -137.51)"/><path class="cls-1" d="M609.5,927.69,617,920.6q6.45-6.09,12.73-11.4A1434.72,1434.72,0,0,0,470.36,935q-23.44,4.81-47.3,10.72l-11.72,2.91-1.25,12c-.83,7.92-1.48,16-2.11,23.78-.52,6.43-1,12.5-1.55,17.92-.49,4.85-4.26,9.12-9.56,12.73-10.53,7.17-27.13,11.76-36.26,13.11l-1.18.17-6.08,1.76-173.73,50.18L248.32,972l-51.78-82.75,138.06-45,2.14-32.65c-9-25.31-11.51-49.54-7.51-72.38L318.43,742l-11.86,3.23-4.81,73.41L144,870.16l63.65,101.7L101.84,1138.59l264.93-76.53.43-.07c7-1.16,28.56-5.44,46.55-16.81,13.56-8.56,25.11-21.14,26.94-39.43.58-5.75,1.08-12,1.62-18.57.28-3.57.58-7.2.89-10.82a1352.94,1352.94,0,0,1,177.86-32Z" transform="translate(-101.84 -137.51)"/><path class="cls-1" d="M883.61,954.74a77.87,77.87,0,0,1,26.88,7,60.19,60.19,0,0,1,20.83,16q8.48,10.17,9.44,24.7v5.32a67.91,67.91,0,0,1-1.82,13.32,91.33,91.33,0,0,1-6.17,18.16,75.4,75.4,0,0,1-13,19.25,80,80,0,0,1-22.27,16.83q-13.69,7.26-34.27,10.9t-48.67,1.45L803.7,1031q18.9,4.13,31.85,3t20.58-5.09a38.26,38.26,0,0,0,11.86-9.08q4.25-5.08,5.45-8.6c.81-2.33,1.21-3.59,1.21-3.75.65-3.06,0-5.53-1.81-7.39a17.11,17.11,0,0,0-8-4.11,52.87,52.87,0,0,0-12.11-1.45,107.2,107.2,0,0,0-14.17.72A103.6,103.6,0,0,0,824,998.09a90.41,90.41,0,0,0-12.83,4.36l8.23-104.37,115-5.57,1.21,48.19L862.06,940l-6,17.19A78.31,78.31,0,0,1,883.61,954.74Z" transform="translate(-101.84 -137.51)"/></g></svg>